<?xml version="1.0" encoding="utf-8"?>
<!-- Generator: Adobe Illustrator 26.0.2, SVG Export Plug-In . SVG Version: 6.00 Build 0)  -->
<svg version="1.1" id="Layer_1" xmlns="http://www.w3.org/2000/svg" xmlns:xlink="http://www.w3.org/1999/xlink" x="0px" y="0px"
	 width="426.6px" height="91.9px" viewBox="0 0 426.6 91.9" style="enable-background:new 0 0 426.6 91.9;" xml:space="preserve">
<style type="text/css">
	.st0{fill:#808080;}
	.st1{fill:#333333;}
	.st2{fill:#0026BF;}
	.st3{fill:#E1BF00;}
	.st4{fill:#E10026;}
</style>
<path class="st0" d="M49.6,0C28.9,0,12.1,17.8,12.1,39.7c0,21.1,15.7,38.4,35.4,39.6l-16-25.2C31.4,54,27,48.4,27,39.8
	C27,26.7,37.1,16,49.5,16c9.8,0,18.5,6.8,21.4,16.7h15.4C83.2,13.9,67.6,0,49.6,0"/>
<path class="st1" d="M37.5,0C16.9,0,0,17.8,0,39.7s16.8,39.6,37.5,39.6h0.1C21.8,73.8,10.2,58,10.2,39.6C10.2,21,21.5,5.3,37.5,0"/>
<path class="st1" d="M59.5,32.5H69c-2.8-8.7-10.6-14.6-19.4-14.6c-1.3,0-2.5,0.1-3.8,0.4C52.2,20.4,57.3,25.7,59.5,32.5"/>
<path class="st2" d="M89.4,61.4c-0.5-0.8-5-8.3-9.5-11.3c-4.2-2.8-9.3-2.9-9.5-2.9h-5.3l28.6,44.6h15L89.4,61.4z"/>
<path class="st3" d="M71.9,61.4c-0.8-1.4-5.2-8.4-9.5-11.3c-4.2-2.8-9.3-2.9-9.5-2.9h-5.3l28.6,44.7h15L71.9,61.4z"/>
<path class="st4" d="M54.2,61.4c-0.8-1.4-5.1-8.4-9.5-11.3c-4.3-2.8-9.3-2.9-9.5-2.9h-4.8l0.3,0.8c0.5,1.2,1.1,2.2,1.7,3.2l26,40.6
	h14.9L54.2,61.4z"/>
<path class="st1" d="M150.7,55.8c-6.5-4.6-6.3-16,0.1-20.4c4.7-2.7,10-2.8,16.5-0.2V22.6c-13.6-3-24.2-1.7-31.6,5
	c-11.4,11.1-8.7,27.7,0.1,36.1c8.2,7.5,19.1,8,31.5,5V56.2C160.6,58.2,155,58.5,150.7,55.8"/>
<path class="st1" d="M187,39.1V21.6h-15.6v47.9H187v-23c0.1-2.7,5.9-3.2,6.1,0v23.1h16.4V43.7C208.9,29,189.9,32,187,39.1"/>
<path class="st1" d="M228.7,42.3v-8.4h-15.4v35.8h15.4v-15c0.2-3.2,3.9-8.3,10.5-6.6l2.4-13.8C235.3,33.9,230.8,35.9,228.7,42.3"/>
<path class="st1" d="M323.7,39.8c-5-10.3-20.8-6.5-22.3,1.6v-7.2H286V70h16V47.4c0.1-3.7,5.8-3.7,5.9-0.1V70H324l0.1-22.3
	c0.2-3.8,5.7-3.8,5.9,0L329.8,70l16.1-0.1l0.2-25.8C345.7,31.2,327.9,31.2,323.7,39.8"/>
<path class="st1" d="M265.9,56.7c-0.1,5.2-6.5,4.8-6.6,0V47c0.1-4.2,6.6-4.3,6.6,0V56.7z M244,41.5c-3.8,6.7-3.5,13.5-0.4,20.5
	c5.1,11.2,31.3,12.3,37.5,0c3.3-7,2.8-14.9-0.4-20.5C273.7,30.3,250,31.2,244,41.5"/>
<path class="st1" d="M373.7,56.7c-0.1,5.2-6.5,4.8-6.6,0V47c0.1-4.2,6.6-4.3,6.6,0V56.7z M351.8,41.5c-3.8,6.7-3.5,13.5-0.4,20.5
	c5.1,11.2,31.3,12.3,37.5,0c3.3-7,2.9-14.9-0.4-20.5C381.4,30.3,357.7,31.2,351.8,41.5"/>
<path class="st1" d="M420.8,49.3c-3.8-1.7-6.9-2-10.4-2.4c-4.4-0.5-3.3-4.4-0.4-4.6c4.1-0.3,8.1,0.5,11.9,2.1l2-9.2
	c-11.3-2.1-20.3-2.9-26.9,2c-5.8,4.6-5.3,12.8,0,16.4c3.6,2.5,7.9,1.7,13,3.4c3.1,1,2.3,4-0.4,4.3c-4.9,0.6-11-0.9-14.9-2.7
	l-1.8,9.8c9.2,2.2,19.2,3.6,27.8-0.6C428.3,64,428.9,52.8,420.8,49.3"/>
</svg>
